<svg width="21" height="21" viewBox="0 0 21 21" fill="none" xmlns="http://www.w3.org/2000/svg">
<path d="M0.768293 9.31398C0.768293 8.05993 1.34254 6.87493 2.32682 6.09787L7.96097 1.64986C9.44965 0.474586 11.5503 0.474588 13.039 1.64986L18.6732 6.09787C19.6575 6.87494 20.2317 8.05993 20.2317 9.31398V16.0356C20.2317 18.2986 18.3972 20.1332 16.1341 20.1332H14.5976C14.0318 20.1332 13.5732 19.6745 13.5732 19.1088V16.0356C13.5732 14.9041 12.6559 13.9868 11.5244 13.9868H9.47561C8.3441 13.9868 7.42683 14.9041 7.42683 16.0356V19.1088C7.42683 19.6745 6.96819 20.1332 6.40244 20.1332H4.86585C2.60283 20.1332 0.768293 18.2986 0.768293 16.0356L0.768293 9.31398Z" stroke="white" stroke-width="1.5"/>
</svg>
