<svg width="18" height="22" viewBox="0 0 18 22" fill="none" xmlns="http://www.w3.org/2000/svg">
<path d="M0.767442 13.9522H0H0.767442ZM3.56391 17.2249L3.66932 16.4647H3.66932L3.56391 17.2249ZM13.9872 17.2249L13.8817 16.4647H13.8817L13.9872 17.2249ZM1.24476 12.2148L0.585625 11.8218L1.24476 12.2148ZM3.31447 6.99596C3.31447 3.97989 5.75947 1.53488 8.77554 1.53488V0C4.91178 0 1.77958 3.13219 1.77958 6.99596H3.31447ZM3.31447 9.13715V6.99596H1.77958V9.13715H3.31447ZM1.53488 13.9522C1.53488 13.4596 1.66965 13.0007 1.90389 12.6079L0.585625 11.8218C0.213554 12.4457 6.09913e-08 13.1752 0 13.9522H1.53488ZM3.66932 16.4647C2.44178 16.2945 1.53488 15.2273 1.53488 13.9522H0C-6.09903e-08 15.9575 1.43677 17.7047 3.4585 17.9851L3.66932 16.4647ZM8.77553 16.9062C7.24885 16.9062 5.27644 16.6876 3.66932 16.4647L3.4585 17.9851C5.07809 18.2097 7.13759 18.4411 8.77553 18.4411V16.9062ZM13.8817 16.4647C12.2746 16.6876 10.3022 16.9062 8.77553 16.9062V18.4411C10.4135 18.4411 12.473 18.2097 14.0926 17.9851L13.8817 16.4647ZM16.0162 13.9522C16.0162 15.2273 15.1093 16.2945 13.8817 16.4647L14.0926 17.9851C16.1143 17.7047 17.5511 15.9575 17.5511 13.9522H16.0162ZM15.6472 12.6079C15.8814 13.0007 16.0162 13.4596 16.0162 13.9522H17.5511C17.5511 13.1752 17.3375 12.4457 16.9654 11.8218L15.6472 12.6079ZM14.2366 6.99596V9.13717H15.7715V6.99596H14.2366ZM8.77554 1.53488C11.7916 1.53488 14.2366 3.97989 14.2366 6.99596H15.7715C15.7715 3.1322 12.6393 0 8.77554 0V1.53488ZM16.9654 11.8218C16.6494 11.2918 16.3623 10.8671 16.1256 10.3928C15.8989 9.93877 15.7715 9.53367 15.7715 9.13717H14.2366C14.2366 9.86659 14.472 10.5168 14.7523 11.0784C15.0225 11.6197 15.3866 12.1709 15.6472 12.6079L16.9654 11.8218ZM1.77958 9.13715C1.77958 9.53365 1.65217 9.93875 1.4255 10.3928C1.18878 10.8671 0.901704 11.2917 0.585625 11.8218L1.90389 12.6079C2.16451 12.1709 2.52857 11.6197 2.7988 11.0783C3.0791 10.5168 3.31447 9.86658 3.31447 9.13715H1.77958Z" fill="black"/>
<path d="M11 20.0394C10.5218 20.7587 9.70401 21.2327 8.77553 21.2327C7.84706 21.2327 7.0293 20.7587 6.55107 20.0394" stroke="black" stroke-width="1.5" stroke-linecap="round"/>
</svg>
