<svg width="22" height="21" viewBox="0 0 22 21" fill="none" xmlns="http://www.w3.org/2000/svg">
<path d="M4.80231 12.6913L4.04805 15.4202L1.29121 15.4767C0.467323 13.9958 0 12.3013 0 10.5007C0 8.75953 0.436936 7.11756 1.21143 5.67178H1.21203L3.66638 6.10786L4.74154 8.47221C4.51651 9.10801 4.39386 9.79052 4.39386 10.5007C4.39395 11.2715 4.53801 12.01 4.80231 12.6913Z" fill="#FBBB00"/>
<path d="M21.4796 8.53872C21.604 9.1739 21.6689 9.82988 21.6689 10.5003C21.6689 11.252 21.5873 11.9853 21.432 12.6927C20.9045 15.0996 19.5264 17.2014 17.6173 18.6887L17.6167 18.6881L14.5253 18.5353L14.0878 15.8883C15.3546 15.1683 16.3446 14.0415 16.8661 12.6927H11.0726V8.53872H16.9506H21.4796Z" fill="#518EF8"/>
<path d="M17.617 18.6879L17.6175 18.6885C15.7608 20.1348 13.4022 21.0002 10.8347 21.0002C6.70863 21.0002 3.12135 18.7652 1.29137 15.4761L4.80248 12.6907C5.71744 15.0573 8.07306 16.7419 10.8347 16.7419C12.0217 16.7419 13.1338 16.4309 14.088 15.888L17.617 18.6879Z" fill="#28B446"/>
<path d="M17.7499 2.41734L14.24 5.20219C13.2524 4.60393 12.0849 4.25832 10.8342 4.25832C8.01011 4.25832 5.61043 6.02026 4.7413 8.47169L1.21175 5.67125H1.21115C3.01434 2.30196 6.64686 0 10.8342 0C13.4631 0 15.8735 0.907529 17.7499 2.41734Z" fill="#F14336"/>
</svg>
